<svg version="1.1" viewBox="0.0 0.0 209.2204724409449 205.49081364829397" fill="none" stroke="none" stroke-linecap="square" stroke-miterlimit="10" xmlns:xlink="http://www.w3.org/1999/xlink" xmlns="http://www.w3.org/2000/svg"><clipPath id="p.0"><path d="m0 0l209.22047 0l0 205.49081l-209.22047 0l0 -205.49081z" clip-rule="nonzero"/></clipPath><g clip-path="url(#p.0)"><path fill="#000000" fill-opacity="0.0" d="m0 0l209.22047 0l0 205.49081l-209.22047 0z" fill-rule="evenodd"/><path fill="#528d4d" d="m11.913385 9.926537l186.29921 0l0 185.92126l-186.29921 0z" fill-rule="evenodd"/><path fill="#ffffff" d="m167.0151 53.99842q1.921875 0 2.6875 1.15625q0.765625 1.140625 0.25 2.796875l-26.109375 88.32812q-0.890625 2.6875 -3.84375 2.6875l-13.812508 0q-3.203125 0 -3.96875 -2.6875l-16.125 -55.937492q-0.265625 -1.15625 -0.71875 -1.21875q-0.4375 -0.0625 -0.828125 1.46875l-16.25 55.687492q-0.765625 2.6875 -3.84375 2.6875l-14.203125 0q-3.078125 0 -3.96875 -2.6875l-26.109371 -88.32812q-0.390625 -1.65625 0.375 -2.796875q0.765625 -1.15625 2.6875 -1.15625l16.0 0q1.671875 0 2.375 0.578125q0.703125 0.5625 0.953125 1.59375l16.515621 58.234375q0.390625 1.40625 0.765625 1.40625q0.390625 0 0.765625 -1.015625l16.515625 -58.625q0.265625 -1.03125 0.96875 -1.59375q0.703125 -0.578125 2.359375 -0.578125l13.703125 0q1.65625 0 2.359375 0.578125q0.703125 0.5625 1.09375 1.59375l16.765633 59.140625q0.25 0.890625 0.765625 0.953125q0.515625 0.0625 0.640625 -0.828125l16.265625 -59.265625q0.25 -1.03125 1.015625 -1.59375q0.765625 -0.578125 2.4375 -0.578125l11.515625 0l0 0z" fill-rule="nonzero"/></g></svg>